<svg xmlns="http://www.w3.org/2000/svg" viewBox="0 23.25 258.45001220703125 37.099998474121094" data-asc="1.2" width="258.45001220703125" height="37.099998474121094"><defs/><g><g fill="#000000"><g transform="translate(0, 0)"><path d="M10.75 60.20Q9.20 60.20 8.03 59.40Q6.85 58.60 6.90 57Q7 54.20 7.32 50.80Q7.65 47.40 8.10 43.88Q8.55 40.35 9.03 37.10Q9.50 33.85 9.90 31.30Q9 31.20 8.15 31.15Q7.30 31.10 6.60 31.10Q4.50 31.10 2.83 31.50Q1.15 31.90 0 32.90Q0 29.75 0.53 27.77Q1.05 25.80 2.47 24.90Q3.90 24 6.65 24Q8.65 24 11.13 24.32Q13.60 24.65 16.15 25Q18.70 25.35 20.90 25.35Q22.70 25.35 24.13 25Q25.55 24.65 26.30 23.75Q27.40 24.10 28.00 25.27Q28.60 26.45 28.60 27.85Q28.60 29.10 28.05 30.27Q27.50 31.45 26.30 32.22Q25.10 33 23.05 33Q22.10 33 20.73 32.83Q19.35 32.65 17.80 32.45Q17.25 35.45 16.68 39.63Q16.10 43.80 15.72 48.60Q15.35 53.40 15.25 58.35Q14.35 59.30 13.13 59.75Q11.90 60.20 10.75 60.20ZM34.15 60.20Q32 60.20 30.70 58.75Q29.40 57.30 29.40 54.80Q29.40 53.45 29.75 51.27Q30.10 49.10 30.63 46.48Q31.15 43.85 31.65 41.13Q32.15 38.40 32.50 35.85Q32.85 33.30 32.85 31.35Q32.85 28.90 32.20 27.80L32.20 27.50Q33.30 26.25 34.60 25.65Q35.90 25.05 37.15 25.05Q39.05 25.05 40.40 26.40Q41.75 27.75 41.75 30.45Q41.75 31.90 41.35 34Q40.95 36.10 40.40 38.40Q39.85 40.70 39.30 42.70Q40.25 40.85 41.83 39.02Q43.40 37.20 45.43 36Q47.45 34.80 49.65 34.80Q52.15 34.80 53.03 36.35Q53.90 37.90 53.90 40.20Q53.90 42.30 53.45 44.67Q53 47.05 52.55 49.23Q52.10 51.40 52.10 52.85Q52.10 54.95 53.35 54.95Q53.90 54.95 54.33 54.63Q54.75 54.30 54.95 53.90L55.30 54.15Q55.30 56.10 54.35 57.45Q53.40 58.80 51.93 59.50Q50.45 60.20 48.90 60.20Q46.85 60.20 45.20 58.83Q43.55 57.45 43.55 54.35Q43.55 52.60 44.03 50.55Q44.50 48.50 44.95 46.58Q45.40 44.65 45.40 43.35Q45.40 41.65 44.20 41.65Q43.10 41.65 41.80 42.75Q40.50 43.85 39.53 45.50Q38.55 47.15 38.25 48.75Q38.15 49.15 38.15 49.70Q38.15 50.95 38.53 52.10Q38.90 53.25 38.90 54.80Q38.90 57.10 37.70 58.65Q36.50 60.20 34.15 60.20ZM67.35 33.25Q65.35 33.25 64.08 32.02Q62.80 30.80 62.80 28.95Q62.80 26.95 64.30 25.50Q65.80 24.05 67.95 24.05Q69.95 24.05 71.23 25.30Q72.50 26.55 72.50 28.40Q72.50 30.40 71 31.82Q69.50 33.25 67.35 33.25M63.85 60.20Q61.90 60.20 60.35 58.83Q58.80 57.45 58.80 54.40Q58.80 52.65 59.28 51.13Q59.75 49.60 60.38 48.15Q61 46.70 61.48 45.33Q61.95 43.95 61.95 42.60Q61.95 41.40 61.55 40.88Q61.15 40.35 60.60 40.35Q59.75 40.35 58.95 41.45L58.60 41.25Q58.80 39.25 59.88 37.83Q60.95 36.40 62.53 35.60Q64.10 34.80 65.65 34.80Q67.55 34.80 68.95 36.02Q70.35 37.25 70.35 40Q70.35 41.65 69.88 43.47Q69.40 45.30 68.78 47.10Q68.15 48.90 67.68 50.45Q67.20 52 67.20 53.10Q67.20 54.05 67.58 54.45Q67.95 54.85 68.40 54.85Q68.85 54.85 69.28 54.58Q69.70 54.30 69.90 53.95L70.25 54.05Q70.25 55.90 69.28 57.27Q68.30 58.65 66.85 59.42Q65.40 60.20 63.85 60.20ZM80.05 60.15Q78.20 60.15 76.70 58.67Q75.20 57.20 75.20 54.55Q75.20 53.25 75.55 51.60Q75.90 49.95 76.33 48.25Q76.75 46.55 77.10 45.05Q77.45 43.55 77.45 42.60Q77.45 41.60 77.05 41.02Q76.65 40.45 76 40.45Q75.15 40.45 74.15 41.45L73.85 41.25Q73.80 40.45 74.20 39.35Q74.60 38.25 75.42 37.22Q76.25 36.20 77.55 35.50Q78.85 34.80 80.65 34.80Q83.30 34.80 84.58 36.33Q85.85 37.85 85.85 40.05Q85.85 40.85 85.70 41.60Q86.75 40.05 88.30 38.47Q89.85 36.90 91.73 35.85Q93.60 34.80 95.60 34.80Q97.95 34.80 98.80 36.30Q99.65 37.80 99.65 40.05Q99.65 42.15 99.20 44.55Q98.75 46.95 98.30 49.17Q97.85 51.40 97.85 52.90Q97.85 54.90 99 54.90Q99.60 54.90 100.05 54.52Q100.50 54.15 100.65 53.80L101 53.95Q101 55.80 99.98 57.20Q98.95 58.60 97.40 59.38Q95.85 60.15 94.25 60.15Q92.30 60.15 90.80 58.80Q89.30 57.45 89.30 54.40Q89.30 52.60 89.78 50.50Q90.25 48.40 90.70 46.45Q91.15 44.50 91.15 43.25Q91.15 42.50 90.88 42.08Q90.60 41.65 89.90 41.65Q88.75 41.65 87.38 42.70Q86 43.75 85.03 45.50Q84.05 47.25 84.05 49.35Q84.05 50.70 84.38 51.95Q84.70 53.20 84.70 54.65Q84.70 57.35 83.30 58.75Q81.90 60.15 80.05 60.15ZM122.15 60.25Q120.50 60.25 119.05 59.48Q117.60 58.70 116.70 57.20Q115.80 55.70 115.80 53.60Q115.80 51.45 116.85 48.75Q117.65 48.35 118.75 47.50Q119.85 46.65 120.70 45.58Q121.55 44.50 121.55 43.45Q121.55 42.50 120.83 41.95Q120.10 41.40 119.05 41.40Q117.75 41.40 116.60 42.20Q115.45 43 114.58 44.27Q113.70 45.55 113.23 47.02Q112.75 48.50 112.75 49.85Q112.75 51.15 113.08 52.27Q113.40 53.40 113.40 54.85Q113.40 57.10 112.20 58.65Q111 60.20 108.65 60.20Q106.50 60.20 105.20 58.75Q103.90 57.30 103.90 54.80Q103.90 53.50 104.23 51.35Q104.55 49.20 105.05 46.60Q105.55 44 106.03 41.22Q106.50 38.45 106.83 35.88Q107.15 33.30 107.15 31.25Q107.15 30.15 107.03 29.22Q106.90 28.30 106.50 27.75L106.50 27.45Q107.60 26.20 108.90 25.60Q110.20 25 111.45 25Q113.35 25 114.70 26.35Q116.05 27.70 116.05 30.35Q116.05 31.75 115.68 33.75Q115.30 35.75 114.78 37.95Q114.25 40.15 113.70 42.15Q114.80 40.55 116.20 38.85Q117.60 37.15 119.35 35.97Q121.10 34.80 123.30 34.80Q125.85 34.80 127.30 36.42Q128.75 38.05 128.75 40.30Q128.75 42.55 127.13 45.10Q125.50 47.65 121.70 49.40Q122.35 50.85 123.50 52Q124.65 53.15 126.03 53.77Q127.40 54.40 128.60 54.40Q129.20 54.40 129.65 54.20L129.95 54.50Q128.70 57.40 126.53 58.83Q124.35 60.25 122.15 60.25ZM146.05 60.20Q144.25 60.20 142.80 58.70Q141.35 57.20 141.35 53.75Q141.35 50.95 142.00 48.25Q142.65 45.55 143.48 42.77Q144.30 40 144.88 37.02Q145.45 34.05 145.25 30.75Q143.90 30.95 142.60 31.45Q141.30 31.95 140.05 32.90Q140.05 29.75 140.60 27.77Q141.15 25.80 142.75 24.90Q144.35 24 147.50 24Q149.20 24 151.30 24.25Q153.40 24.50 155.63 24.75Q157.85 25 159.85 25Q161.80 25 163.35 24.63Q164.90 24.25 165.75 23.25Q166.75 23.90 167.28 25.02Q167.80 26.15 167.80 27.45Q167.80 28.80 167.18 30.07Q166.55 31.35 165.25 32.17Q163.95 33 161.85 33Q159.65 33 157.05 32.30Q154.45 31.60 151.70 31.10Q151.95 32.20 152.08 33.30Q152.20 34.40 152.20 35.55Q152.20 36.80 152.10 38.02Q152.00 39.25 151.80 40.55Q152.85 40 154.35 39.55Q155.85 39.10 157.43 38.80Q159.00 38.50 160.25 38.50Q161.05 38.50 161.65 38.65Q162.15 39.70 162.15 41.20Q162.15 43.60 160.95 46.10L160.60 46.25Q158.75 45.25 156.33 44.70Q153.90 44.15 151.25 43.95Q150.75 46.80 150.30 49.75Q149.85 52.70 149.85 55.80Q149.85 56.45 149.88 57.15Q149.90 57.85 149.95 58.55Q148.30 60.20 146.05 60.20ZM173.55 60.20Q172.20 60.20 170.93 59.52Q169.65 58.85 168.85 57.35Q168.05 55.85 168.05 53.50Q168.05 51.40 168.63 48.58Q169.20 45.75 169.93 42.70Q170.65 39.65 171.20 36.75Q171.75 33.85 171.70 31.60Q171.70 29.45 171.20 28.55L171.15 28.40Q171.70 26.80 173.10 25.90Q174.50 25 176.05 25Q177.80 25 179.18 26.32Q180.55 27.65 180.55 30.75Q180.55 32.40 180.15 34.67Q179.75 36.95 179.20 39.52Q178.65 42.10 178.08 44.60Q177.50 47.10 177.10 49.20Q176.70 51.30 176.70 52.65Q176.70 54.05 177.10 54.58Q177.50 55.10 178.00 55.10Q178.55 55.10 179.05 54.67Q179.55 54.25 179.70 53.90L180.10 54Q180.05 55.80 179.08 57.20Q178.10 58.60 176.63 59.40Q175.15 60.20 173.55 60.20ZM201.35 60.25Q199.60 60.25 198.30 59.10Q197.00 57.95 197.00 55.35Q197.00 55.10 197.00 54.85Q197.00 54.60 197.05 54.35Q195.55 57.35 193.68 58.77Q191.80 60.20 189.90 60.20Q188.15 60.20 186.60 58.98Q185.05 57.75 184.10 55.35Q183.15 52.95 183.15 49.55Q183.15 46.05 184.13 43.30Q185.10 40.55 186.70 38.65Q188.30 36.75 190.20 35.77Q192.10 34.80 193.90 34.80Q195.90 34.80 197.50 36.02Q199.10 37.25 199.70 39.90Q199.85 39.05 199.93 38.35Q200.00 37.65 200.00 37.40Q200.05 36.05 201.38 35.40Q202.70 34.75 204.30 34.75Q205.70 34.75 206.95 35.30Q208.20 35.85 208.65 37.15L208.75 37.45Q208.15 38.80 207.55 40.70Q206.95 42.60 206.45 44.67Q205.95 46.75 205.65 48.73Q205.35 50.70 205.35 52.20Q205.35 53.85 205.70 54.48Q206.05 55.10 206.55 55.10Q207.40 55.10 208.10 53.90L208.50 54.10Q208.50 55.80 207.40 57.20Q206.30 58.60 204.65 59.42Q203.00 60.25 201.35 60.25M193.20 53.90Q194.50 53.90 196.08 51.58Q197.65 49.25 198.80 44.90Q198.90 44.45 199.00 44.02Q199.10 43.60 199.15 43.20Q198.35 41.35 197.48 40.58Q196.60 39.80 195.75 39.80Q194.50 39.80 193.43 41.13Q192.35 42.45 191.68 44.45Q191.00 46.45 191.00 48.45Q191.00 51.20 191.63 52.55Q192.25 53.90 193.20 53.90ZM217.20 60.20Q215.40 60.20 214.00 58.73Q212.60 57.25 212.60 54.55Q212.60 53.25 212.90 51.60Q213.20 49.95 213.60 48.23Q214.00 46.50 214.30 44.98Q214.60 43.45 214.60 42.45Q214.60 41.40 214.23 40.77Q213.85 40.15 213.25 40.15Q212.30 40.15 211.30 41.45L211.00 41.25Q210.95 40.45 211.35 39.35Q211.75 38.25 212.60 37.22Q213.45 36.20 214.78 35.50Q216.10 34.80 217.90 34.80Q220.55 34.80 221.75 36.33Q222.95 37.85 222.95 40Q222.95 40.35 222.93 40.72Q222.90 41.10 222.85 41.45Q224.65 38.20 226.63 36.47Q228.60 34.75 230.30 34.75Q231.90 34.75 232.65 36Q233.40 37.25 233.40 39Q233.40 40.60 232.78 42.25Q232.15 43.90 230.93 44.98Q229.70 46.05 227.95 46L227.75 45.90Q227.70 44.60 226.90 43.85Q226.10 43.10 225.10 43.10Q223.75 43.10 222.58 44.45Q221.40 45.80 221.40 48.35Q221.40 49.90 221.75 51.70Q222.10 53.50 222.10 54.75Q222.10 56.25 221.40 57.50Q220.70 58.75 219.60 59.48Q218.50 60.20 217.20 60.20ZM245.65 60.35Q242.00 60.35 239.60 58.88Q237.20 57.40 236.00 54.98Q234.80 52.55 234.80 49.75Q234.80 47.10 235.83 44.42Q236.85 41.75 238.83 39.55Q240.80 37.35 243.63 36Q246.45 34.65 250.00 34.65Q254.40 34.65 256.43 36.63Q258.45 38.60 258.45 41.40Q258.45 43.80 257.18 45.83Q255.90 47.85 253.80 49.08Q251.70 50.30 249.20 50.30Q247.90 50.30 246.55 49.90Q245.20 49.50 243.90 48.65Q244.15 51.75 245.70 53.15Q247.25 54.55 249.40 54.55Q250.90 54.55 252.40 53.98Q253.90 53.40 255.18 52.48Q256.45 51.55 257.15 50.50L257.50 50.75Q257.50 53.35 256.43 55.17Q255.35 57 253.60 58.15Q251.85 59.30 249.78 59.83Q247.70 60.35 245.65 60.35M246.80 46.85Q248.40 46.85 249.40 45.92Q250.40 45 250.90 43.75Q251.40 42.50 251.40 41.55Q251.40 40.40 250.75 39.63Q250.10 38.85 248.95 38.85Q248.05 38.85 246.98 39.50Q245.90 40.15 245.05 41.72Q244.20 43.30 243.95 46.10Q245.55 46.85 246.80 46.85Z"/></g></g></g></svg>